<svg xmlns="http://www.w3.org/2000/svg" xmlns:xlink="http://www.w3.org/1999/xlink" version="1.1" x="0px" y="0px" viewBox="0 0 52 65" enable-background="new 0 0 52 52" xml:space="preserve"><g><path d="M31.4,42.3l0.8-2.8c-0.9-1.6-1.5-3.5-1.5-5.3c0-3.2,1.4-6.3,4.1-8.3c1.2-2.5,1.9-5.3,1.9-8.2C36.8,8.5,30.2,1,22.2,1   S7.7,8.5,7.7,17.7c0,5,1.9,9.7,5.2,12.8c-6.3,3.3-10.8,10-10.8,17.8V50c0,0.5,0.5,1,1,1h7.2v-4.8c0-0.6,0.4-1,1-1c0.6,0,1,0.4,1,1   V51h19.8v-4.8c0-0.3,0.1-0.6,0.3-0.7c0,0-0.1,0-0.1-0.1C31.4,44.7,31.1,43.4,31.4,42.3z M25.7,31c0,1.7-1.5,3.4-3.5,3.4   c-2.3,0-3.8-2.2-3.5-4.4c0,0,0,0,0,0c2.2,1.1,4.7,1.1,6.9,0c0,0,0,0,0,0C25.7,31.4,25.7,30.9,25.7,31z M22.2,28.6   c-5.1,0-8.6-5.7-8.6-10.9c0-1.4,0.2-2.7,0.6-3.9c3.3,0.5,8-2.4,8-7h0c4.7,0,8.6,5,8.6,10.9C30.8,23,27.3,28.6,22.2,28.6z"/><path d="M41.3,44.7c-1,0-2.1-0.2-2.7-0.3l-3,1.5c-0.5,0.3-1.2,0.3-1.5,0.3c0,0.1,0,0.8,0,4.8h7.2c0.6,0,1-0.5,1-1v-1.7   c0-1.2-0.1-2.4-0.3-3.6C41.7,44.7,41.5,44.7,41.3,44.7z"/><path d="M17.1,16.4c0,0.6,0.5,1.1,1.1,1.1c0.6,0,1.1-0.5,1.1-1.1C19.3,15,17.1,15,17.1,16.4z"/><circle cx="26.2" cy="16.4" r="1.1"/><path d="M24,22.4h-3.6c-0.2,0-0.4,0.2-0.3,0.4c0.3,0.9,1.1,1.6,2.1,1.6s1.9-0.7,2.1-1.6C24.4,22.6,24.3,22.4,24,22.4z"/><path d="M41.3,25.7c-4.7,0-8.5,3.8-8.5,8.5c0,1.8,0.6,3.5,1.6,5l-1.1,3.6c-0.1,0.4,0,0.8,0.3,1.1c0.3,0.3,0.8,0.3,1.1,0.1l3.8-1.8   c0.8,0.3,1.9,0.5,2.8,0.5c4.7,0,8.5-3.8,8.5-8.5C49.8,29.5,46,25.7,41.3,25.7z M44.5,37h-6.5c-0.6,0-1-0.4-1-1s0.4-1,1-1h6.5   c0.6,0,1,0.4,1,1S45,37,44.5,37z M44.5,33.8h-6.5c-0.6,0-1-0.4-1-1s0.4-1,1-1h6.5c0.6,0,1,0.4,1,1S45,33.8,44.5,33.8z"/></g><text x="0" y="67" fill="#000000" font-size="5px" font-weight="bold" font-family="'Helvetica Neue', Helvetica, Arial-Unicode, Arial, Sans-serif"></text><text x="0" y="72" fill="#000000" font-size="5px" font-weight="bold" font-family="'Helvetica Neue', Helvetica, Arial-Unicode, Arial, Sans-serif"></text></svg>