<svg xmlns="http://www.w3.org/2000/svg" xmlns:xlink="http://www.w3.org/1999/xlink" version="1.1" x="0px" y="0px" viewBox="0 0 100 125" enable-background="new 0 0 100 100" xml:space="preserve"><rect x="51.483" y="36.558" fill-rule="evenodd" clip-rule="evenodd" width="6.994" height="5.583"/><rect x="51.483" y="27.512" fill-rule="evenodd" clip-rule="evenodd" width="6.994" height="5.583"/><rect x="51.483" y="18.465" fill-rule="evenodd" clip-rule="evenodd" width="6.994" height="5.583"/><rect x="37.875" y="36.558" fill-rule="evenodd" clip-rule="evenodd" width="6.994" height="5.583"/><rect x="37.875" y="27.512" fill-rule="evenodd" clip-rule="evenodd" width="6.994" height="5.583"/><rect x="37.875" y="18.465" fill-rule="evenodd" clip-rule="evenodd" width="6.994" height="5.583"/><path fill-rule="evenodd" clip-rule="evenodd" d="M80.617,63.266c-1.177-1.526-2.997-2.461-4.986-2.461  c-0.967,0-1.922,0.234-2.923,0.741l-2.6,1.542c-1.185-1.429-2.934-2.283-4.85-2.283c-0.966,0-1.92,0.234-2.836,0.694  c-0.035,0.017-0.069,0.037-0.102,0.057l-9.923,6.077c-7.244-2.147-16.516-4.787-18.314-4.787c-1.491,0-10.086,2.317-14.22,3.456  l-0.563-8.487L7.383,57.794L7.32,94.259l14.399,0.021l-0.363-5.468c8.448,1.886,27.766,6.119,30.912,6.119  c4.112,0,17.93-9.211,32.249-19.165c0.941-0.654,1.755-1.22,2.403-1.666c1.614-1.109,2.578-3.013,2.578-5.093  C89.499,64.671,85.111,61.285,80.617,63.266z M85.334,71.794c-0.652,0.449-1.469,1.018-2.415,1.675  c-6.64,4.616-26.849,18.663-30.65,18.663c-2.452,0-18.984-3.516-31.105-6.23l-1.111-16.748c6.287-1.738,13.079-3.48,14.031-3.507  c1.285,0,11.196,2.728,23.564,6.486c2.019,0.613,4.425,1.851,4.425,4.265c0,2.194-1.768,3.984-3.954,4.019l-3.662-0.359  l-12.477-1.602c-0.766-0.103-1.469,0.442-1.567,1.21c-0.099,0.768,0.443,1.469,1.21,1.567l12.518,1.606l3.777,0.371  c0.045,0.004,0.091,0.007,0.137,0.007c3.76,0,6.818-3.059,6.818-6.819c0-3.222-2.277-5.688-6.411-6.944  c-0.72-0.219-1.553-0.471-2.459-0.744l7.728-4.733c1.414-0.687,2.918-0.364,3.921,0.57l-3.812,2.261  c-0.665,0.395-0.885,1.253-0.49,1.918c0.262,0.441,0.728,0.687,1.205,0.687c0.243,0,0.489-0.063,0.713-0.196l8.786-5.215  c1.484-0.746,3.068-0.349,4.073,0.683L67.878,70.76c-0.665,0.395-0.885,1.253-0.49,1.918c0.394,0.666,1.255,0.883,1.918,0.49  l12.29-7.291c0.522-0.263,1.053-0.396,1.578-0.396c1.943,0,3.524,1.582,3.524,3.527C86.698,70.166,86.188,71.207,85.334,71.794z"/><path fill-rule="evenodd" clip-rule="evenodd" d="M90.381,27.557c0.145-1.384,0.121-2.801-0.074-4.211l3.197-1.392  c-0.289-1.549-0.754-3.074-1.4-4.549c-0.643-1.479-1.451-2.857-2.395-4.119l-3.19,1.39c-0.897-1.104-1.916-2.08-3.031-2.921  l1.259-3.209c-2.613-1.794-5.623-2.997-8.801-3.477l-1.267,3.234c-1.388-0.144-2.801-0.123-4.211,0.074l-1.396-3.202  c-1.554,0.293-3.077,0.761-4.55,1.405c-1.48,0.646-2.856,1.448-4.121,2.384l1.231,2.824h-4.725V7.56c0-0.773-0.627-1.4-1.4-1.4  H40.845c-0.773,0-1.4,0.627-1.4,1.4v4.227h-7.971c-0.773,0-1.4,0.627-1.4,1.4v3.643c-1.131-0.425-2.284-0.736-3.451-0.923  l-1.108,2.732c-1.194-0.133-2.391-0.119-3.559,0.028l-1.147-2.716c-1.314,0.231-2.608,0.604-3.862,1.139  c-1.255,0.532-2.425,1.199-3.504,1.975l1.149,2.719c-0.92,0.733-1.763,1.584-2.497,2.537l-2.734-1.108  c-0.762,1.088-1.41,2.269-1.923,3.534c-0.509,1.263-0.868,2.565-1.07,3.877l2.723,1.105c-0.136,1.194-0.124,2.39,0.029,3.559  l-2.687,1.137c0.462,2.64,1.511,5.168,3.102,7.371l2.703-1.143c0.732,0.921,1.581,1.761,2.533,2.497l-1.11,2.735  c1.095,0.769,2.274,1.413,3.534,1.921c1.266,0.514,2.565,0.869,3.88,1.079l1.106-2.731c1.193,0.138,2.391,0.123,3.558-0.027  l1.147,2.716c1.08-0.189,2.145-0.484,3.188-0.876v4.133h-1.206c-0.773,0-1.4,0.627-1.4,1.4c0,0.773,0.627,1.4,1.4,1.4h2.606h33.403  h2.606c0.773,0,1.4-0.627,1.4-1.4c0-0.774-0.627-1.4-1.4-1.4h-1.206v-8.48c1.159,0.393,2.355,0.693,3.579,0.876l1.269-3.233  c1.385,0.143,2.798,0.12,4.208-0.078l1.396,3.202c1.557-0.29,3.077-0.755,4.549-1.4c1.482-0.646,2.857-1.451,4.122-2.39  l-1.396-3.196c1.104-0.896,2.082-1.921,2.92-3.033l3.247,1.276c0.892-1.301,1.642-2.707,2.232-4.208  c0.588-1.502,0.994-3.044,1.226-4.601L90.381,27.557z M42.246,8.96h11.86v2.826h-11.86V8.96z M28.871,38.085  c-2.594,2.775-6.94,2.922-9.713,0.329c-2.772-2.589-2.922-6.937-0.329-9.711c2.587-2.771,6.937-2.919,9.708-0.328  c0.665,0.621,1.175,1.345,1.536,2.123v5.797C29.776,36.936,29.378,37.542,28.871,38.085z M51.848,54.098h-7.345V48.8h7.345V54.098z   M54.649,54.098v-6.698c0-0.773-0.627-1.4-1.4-1.4H43.103c-0.773,0-1.4,0.627-1.4,1.4v6.698h-8.828V14.587h30.603v39.511H54.649z   M73.268,33.901c-2.862,0.13-5.444-1.238-6.99-3.411v-9.411c1.4-1.97,3.656-3.302,6.257-3.419c4.484-0.203,8.285,3.271,8.49,7.751  C81.227,29.902,77.755,33.701,73.268,33.901z"/><text x="0" y="115" fill="#000000" font-size="5px" font-weight="bold" font-family="'Helvetica Neue', Helvetica, Arial-Unicode, Arial, Sans-serif"></text><text x="0" y="120" fill="#000000" font-size="5px" font-weight="bold" font-family="'Helvetica Neue', Helvetica, Arial-Unicode, Arial, Sans-serif"></text></svg>