<svg xmlns="http://www.w3.org/2000/svg" viewBox="0 0 100 125" x="0px" y="0px"><path fill-rule="evenodd" d="M699.131579,2375.25 L697.263158,2375.25 L697.263158,2365.875 C697.263158,2364.84 696.426105,2364 695.394737,2364 L639.342105,2364 C638.310737,2364 637.473684,2364.84 637.473684,2365.875 L637.473684,2375.25 L635.605263,2375.25 C632.514895,2375.25 630,2377.77 630,2380.875 L630,2395.875 C630,2398.97625 632.514895,2401.5 635.605263,2401.5 L665.5,2401.5 C666.531368,2401.5 667.368421,2402.34 667.368421,2403.375 L667.368421,2412.81 C663.885684,2413.57125 659.894737,2416.28625 659.894737,2420.085 L659.894737,2448.21 C659.894737,2451.7425 665.193579,2454 667.962579,2454 L671.699421,2454 C674.815947,2454 678.578947,2451.41625 678.578947,2448.21 L678.578947,2420.085 C678.578947,2416.28625 674.588,2413.57125 671.105263,2412.81 L671.105263,2403.375 C671.105263,2400.27 668.590368,2397.75 665.5,2397.75 L635.605263,2397.75 C634.573895,2397.75 633.736842,2396.90625 633.736842,2395.875 L633.736842,2380.875 C633.736842,2379.84 634.573895,2379 635.605263,2379 L637.473684,2379 L637.473684,2388.375 C637.473684,2389.40625 638.310737,2390.25 639.342105,2390.25 L695.394737,2390.25 C696.426105,2390.25 697.263158,2389.40625 697.263158,2388.375 L697.263158,2379 L699.131579,2379 C700.162947,2379 701,2378.15625 701,2377.125 C701,2376.09 700.162947,2375.25 699.131579,2375.25" transform="translate(-615 -2359)"/><text x="0" y="115" fill="#000000" font-size="5px" font-weight="bold" font-family="'Helvetica Neue', Helvetica, Arial-Unicode, Arial, Sans-serif"></text><text x="0" y="120" fill="#000000" font-size="5px" font-weight="bold" font-family="'Helvetica Neue', Helvetica, Arial-Unicode, Arial, Sans-serif"></text></svg>